<svg xmlns="http://www.w3.org/2000/svg" width="33" height="32" viewBox="0 0 33 32" fill="none">
<rect x="0.36377" width="31.9969" height="31.9969" rx="6" fill="#3299FF"/>
<g clip-path="url(#clip0_3143_6150)">
<path d="M10.7502 9.41217C13.0775 11.0134 15.5809 14.2601 16.5 16.0024C17.4191 14.2602 19.9223 11.0134 22.2498 9.41217C23.9291 8.25678 26.65 7.3628 26.65 10.2075C26.65 10.7756 26.2945 14.98 26.0861 15.6626C25.3615 18.0356 22.721 18.6409 20.3723 18.2746C24.4778 18.9149 25.5222 21.036 23.2667 23.1571C18.9831 27.1854 17.1099 22.1464 16.6297 20.8552C16.5417 20.6184 16.5005 20.5077 16.4999 20.6019C16.4993 20.5077 16.4581 20.6184 16.3701 20.8552C15.8902 22.1464 14.017 27.1856 9.73309 23.1571C7.47755 21.036 8.52192 18.9148 12.6275 18.2746C10.2787 18.6409 7.63824 18.0356 6.91374 15.6626C6.70527 14.9799 6.34985 10.7755 6.34985 10.2075C6.34985 7.3628 9.07082 8.25678 10.7501 9.41217H10.7502Z" fill="white"/>
</g>
<defs>
<clipPath id="clip0_3143_6150">
<rect width="21" height="17" fill="white" transform="translate(6 8)"/>
</clipPath>
</defs>
</svg>