<svg xmlns="http://www.w3.org/2000/svg" width="33" height="32" viewBox="0 0 33 32" fill="none">
<rect x="0.36377" width="31.9969" height="31.9969" rx="6" fill="#563ACC"/>
<path d="M16.9324 4.00032C13.6371 4.01309 10.3653 4.41306 8.66282 5.16348C8.66282 5.16348 5 6.75754 5 12.1873C5 18.6506 4.99509 26.7674 11.0685 28.3371C13.3944 28.9347 15.3946 29.0634 17.0027 28.9747C19.921 28.8172 21.3644 27.9623 21.3644 27.9623L21.2664 25.9008C21.2664 25.9008 19.3748 26.538 17.0325 26.465C14.7121 26.3868 12.2674 26.2203 11.8867 23.4502C11.8518 23.1926 11.8345 22.9317 11.8356 22.672C16.7525 23.8391 20.9453 23.1804 22.0995 23.0469C25.3222 22.6724 28.1277 20.7405 28.4855 18.9748C29.0463 16.1921 28.999 12.1873 28.999 12.1873C28.999 6.75754 25.3426 5.16348 25.3426 5.16348C23.5474 4.36195 20.2276 3.98754 16.9324 4.00032ZM13.4059 8.14166C14.535 8.17061 15.6506 8.6535 16.3379 9.67353L17.0027 10.7532L17.6654 9.67353C19.0454 7.622 22.1386 7.75001 23.6103 9.33742C24.9674 10.8476 24.665 11.8224 24.665 18.5694V18.5714H21.9951V12.7006C21.9951 9.95237 18.3302 9.84623 18.3302 13.0815V16.4834H15.6774V13.0815C15.6774 9.84623 12.0145 9.95033 12.0145 12.6986V18.5694H9.33828C9.33828 11.8172 9.04131 10.8362 10.393 9.33742C11.1343 8.5385 12.2769 8.11272 13.4059 8.14166Z" fill="white"/>
</svg>