<svg xmlns="http://www.w3.org/2000/svg" width="70" height="71" viewBox="0 0 70 71" fill="none">
<rect x="-0.00244141" y="0.496094" width="69.9956" height="69.9956" rx="14" fill="#BD081C"/>
<path d="M34.9871 14.4951C23.3778 14.4951 13.9971 23.8931 13.9971 35.4851C13.9971 44.3821 19.5253 51.9835 27.334 55.0413C27.1439 53.3828 26.9884 50.826 27.403 49.0121C27.7831 47.3708 29.8562 38.5775 29.8562 38.5775C29.8562 38.5775 29.2343 37.3164 29.2343 35.4679C29.2343 32.5483 30.9273 30.3715 33.0349 30.3715C34.8316 30.3715 35.6954 31.719 35.6954 33.3257C35.6954 35.1224 34.5552 37.8174 33.9506 40.3223C33.4496 42.4127 35.0044 44.123 37.0602 44.123C40.7917 44.123 43.6595 40.1841 43.6595 34.5177C43.6595 29.4905 40.0489 25.9835 34.8834 25.9835C28.906 25.9835 25.3991 30.4579 25.3991 35.0878C25.3991 36.8845 26.0901 38.8193 26.9539 39.8732C27.1267 40.0805 27.1439 40.2705 27.0921 40.4778C26.9366 41.1343 26.5738 42.5682 26.5047 42.8619C26.4183 43.242 26.1937 43.3284 25.7964 43.1383C23.205 41.8944 21.5811 38.0592 21.5811 34.9841C21.5811 28.3676 26.3838 22.2865 35.4536 22.2865C42.7267 22.2865 48.3931 27.4692 48.3931 34.414C48.3931 41.6526 43.8323 47.4745 37.5094 47.4745C35.3844 47.4745 33.3804 46.3689 32.7067 45.0559C32.7067 45.0559 31.6529 49.0639 31.3938 50.0486C30.9273 51.8798 29.6489 54.1602 28.7851 55.5596C30.7546 56.1642 32.8276 56.4925 35.0044 56.4925C46.5964 56.4925 55.9944 47.0945 55.9944 35.5024C55.9771 23.8931 46.5791 14.4951 34.9871 14.4951Z" fill="white"/>
</svg>