<svg xmlns="http://www.w3.org/2000/svg" width="71" height="70" viewBox="0 0 71 70" fill="none">
<rect x="0.983398" y="0.00915527" width="69.999" height="69.999" rx="14" fill="black"/>
<path d="M47.1133 33.3386C46.913 33.2442 46.7095 33.1533 46.5033 33.0663C46.1443 26.5619 42.5296 22.8382 36.4601 22.8001C36.4326 22.7999 36.4053 22.7999 36.3778 22.7999C32.7475 22.7999 29.7282 24.3235 27.8698 27.0961L31.2078 29.3475C32.5961 27.2765 34.7748 26.835 36.3794 26.835C36.3979 26.835 36.4165 26.835 36.4349 26.8352C38.4333 26.8477 39.9414 27.419 40.9174 28.5332C41.6277 29.3443 42.1027 30.4652 42.338 31.8798C40.5661 31.5837 38.6499 31.4926 36.6014 31.6081C30.8308 31.9349 27.121 35.244 27.3702 39.8422C27.4966 42.1745 28.6784 44.1811 30.6976 45.4919C32.4049 46.6 34.6038 47.1418 36.889 47.0192C39.907 46.8565 42.2745 45.7244 43.9262 43.6542C45.1806 42.0821 45.974 40.0449 46.3243 37.4778C47.7625 38.3313 48.8285 39.4544 49.4171 40.8045C50.4181 43.0995 50.4765 46.8708 47.3468 49.9454C44.6048 52.6389 41.3086 53.8041 36.3273 53.8401C30.8016 53.7998 26.6226 52.0575 23.9056 48.6613C21.3613 45.4812 20.0464 40.8878 19.9973 35.0087C20.0464 29.1296 21.3613 24.5362 23.9056 21.3561C26.6226 17.96 30.8015 16.2176 36.3272 16.1772C41.893 16.2179 46.1448 17.9686 48.9658 21.3812C50.3491 23.0546 51.392 25.1591 52.0795 27.6129L55.9912 26.5867C55.1579 23.5664 53.8465 20.9638 52.0621 18.8053C48.4455 14.4303 43.1561 12.1886 36.3408 12.1421H36.3136C29.5122 12.1884 24.282 14.4387 20.7684 18.8304C17.6418 22.7385 16.029 28.1763 15.9748 34.9926L15.9746 35.0087L15.9748 35.0248C16.029 41.8411 17.6418 47.279 20.7684 51.1871C24.282 55.5787 29.5122 57.8291 36.3136 57.8753H36.3408C42.3876 57.8341 46.6499 56.2775 50.1611 52.8283C54.755 48.3157 54.6167 42.6593 53.1026 39.1869C52.0163 36.6968 49.9453 34.6743 47.1133 33.3386ZM36.673 42.9899C34.1438 43.1299 31.5163 42.0138 31.3868 39.623C31.2907 37.8504 32.6698 35.8724 36.8282 35.6368C37.3044 35.6098 37.7717 35.5966 38.2308 35.5966C39.7412 35.5966 41.1543 35.7409 42.439 36.017C41.9598 41.9009 39.1492 42.8563 36.673 42.9899Z" fill="white"/>
</svg>