<svg xmlns="http://www.w3.org/2000/svg" width="70" height="71" viewBox="0 0 70 71" fill="none">
<rect x="-0.00292969" y="0.496094" width="69.999" height="69.999" rx="14" fill="#242424"/>
<path d="M42.7751 30.6611C45.5509 32.6524 48.9515 33.8241 52.6242 33.8241V26.7314C51.9291 26.7316 51.2358 26.6588 50.5558 26.5143V32.0972C46.8834 32.0972 43.4833 30.9255 40.7067 28.9343V43.4084C40.7067 50.6491 34.8578 56.5184 27.6433 56.5184C24.9514 56.5184 22.4494 55.7017 20.371 54.301C22.7431 56.7351 26.0513 58.2451 29.7113 58.2451C36.9262 58.2451 42.7754 52.3758 42.7754 45.1349V30.6611H42.7751ZM45.3266 23.5055C43.908 21.9501 42.9766 19.9401 42.7751 17.7179V16.8057H40.815C41.3083 19.63 42.9912 22.043 45.3266 23.5055ZM24.9341 48.7447C24.1416 47.7018 23.7132 46.4259 23.7152 45.1141C23.7152 41.8025 26.3904 39.1174 29.6909 39.1174C30.306 39.1173 30.9174 39.2118 31.5036 39.3985V32.1473C30.8186 32.053 30.1272 32.0131 29.4361 32.0277V37.6717C28.8495 37.485 28.2378 37.3902 27.6225 37.3908C24.322 37.3908 21.6469 40.0756 21.6469 43.3877C21.6469 45.7295 22.9841 47.757 24.9341 48.7447Z" fill="#FF004F"/>
<path d="M40.7078 28.9342C43.4844 30.9254 46.8845 32.0971 50.557 32.0971V26.5141C48.507 26.0759 46.6923 25.0008 45.3278 23.5055C42.9922 22.0428 41.3095 19.6299 40.8161 16.8057H35.6675V45.1346C35.6559 48.4372 32.9852 51.1113 29.6918 51.1113C27.751 51.1113 26.0268 50.1829 24.9349 48.7447C22.985 47.757 21.6478 45.7294 21.6478 43.3878C21.6478 40.0761 24.3229 37.391 27.6234 37.391C28.2557 37.391 28.8652 37.4898 29.437 37.6718V32.0279C22.3492 32.1748 16.6489 37.9868 16.6489 45.1347C16.6489 48.7029 18.0684 51.9376 20.3723 54.3011C22.4507 55.7017 24.9527 56.5185 27.6446 56.5185C34.8593 56.5185 40.708 50.6489 40.708 43.4084V28.9342H40.7078Z" fill="white"/>
<path d="M50.5555 26.5132V25.0036C48.707 25.0064 46.8947 24.4869 45.3264 23.5044C46.7147 25.0298 48.5429 26.0816 50.5555 26.5132ZM40.8147 16.8047C40.7676 16.5348 40.7315 16.2631 40.7064 15.9904V15.0781H33.5975V43.4073C33.5862 46.7095 30.9156 49.3836 27.6219 49.3836C26.6549 49.3836 25.7419 49.1532 24.9334 48.7439C26.0254 50.1819 27.7495 51.1102 29.6903 51.1102C32.9834 51.1102 35.6545 48.4364 35.6661 45.1338V16.8047H40.8147ZM29.4358 32.0269V30.4199C28.8418 30.3384 28.2429 30.2975 27.6433 30.2978C20.4281 30.2977 14.5792 36.1673 14.5792 43.4073C14.5792 47.9465 16.8779 51.9468 20.371 54.2999C18.0671 51.9366 16.6476 48.7017 16.6476 45.1337C16.6476 37.9859 22.3477 32.1739 29.4358 32.0269Z" fill="#00F2EA"/>
</svg>