<svg xmlns="http://www.w3.org/2000/svg" width="70" height="71" viewBox="0 0 70 71" fill="none">
<rect x="-0.00390625" y="0.496094" width="69.999" height="69.999" rx="14" fill="#FF0000"/>
<path d="M55.378 25.4767C54.8977 23.6925 53.4908 22.2856 51.7065 21.8052C48.4468 20.9131 35.4077 20.9131 35.4077 20.9131C35.4077 20.9131 22.3687 20.9131 19.1089 21.7709C17.359 22.2513 15.9178 23.6925 15.4374 25.4767C14.5796 28.7365 14.5796 35.4962 14.5796 35.4962C14.5796 35.4962 14.5796 42.2902 15.4374 45.5157C15.9178 47.3 17.3246 48.7068 19.1089 49.1872C22.403 50.0793 35.4077 50.0793 35.4077 50.0793C35.4077 50.0793 48.4468 50.0793 51.7065 49.2215C53.4908 48.7411 54.8977 47.3343 55.378 45.55C56.2359 42.2902 56.2359 35.5305 56.2359 35.5305C56.2359 35.5305 56.2702 28.7365 55.378 25.4767Z" fill="white"/>
<path d="M31.2554 41.741L42.0984 35.496L31.2554 29.251V41.741Z" fill="#FF0000"/>
</svg>