<svg width="778" height="193" viewBox="0 0 778 193" fill="none" xmlns="http://www.w3.org/2000/svg">
<path d="M258.328 104.456C262.419 105.219 265.885 107.299 268.728 110.696C271.571 114.093 272.992 118.045 272.992 122.552C272.992 126.227 272.056 129.555 270.184 132.536C268.381 135.448 265.712 137.771 262.176 139.504C258.64 141.168 254.411 142 249.488 142H224.32V69.304H248.76C256.109 69.304 261.691 71.0027 265.504 74.4C269.387 77.7973 271.328 82.2 271.328 87.608C271.328 92.1147 270.115 95.7893 267.688 98.632C265.261 101.405 262.141 103.347 258.328 104.456ZM231.6 101.44H248.552C253.475 101.44 257.253 100.296 259.888 98.008C262.592 95.6507 263.944 92.4267 263.944 88.336C263.944 84.3147 262.592 81.16 259.888 78.872C257.253 76.584 253.371 75.44 248.24 75.44H231.6V101.44ZM248.968 135.864C254.237 135.864 258.328 134.616 261.24 132.12C264.221 129.624 265.712 126.192 265.712 121.824C265.712 117.456 264.152 113.989 261.032 111.424C257.981 108.789 253.856 107.472 248.656 107.472H231.6V135.864H248.968Z" fill="#121212"/>
<path d="M293.655 95.304C295.249 91.768 297.676 89.0293 300.935 87.088C304.263 85.1467 308.319 84.176 313.103 84.176V91.768H311.127C305.857 91.768 301.628 93.1893 298.439 96.032C295.249 98.8747 293.655 103.624 293.655 110.28V142H286.375V85.216H293.655V95.304Z" fill="#121212"/>
<path d="M320.726 113.504C320.726 107.68 321.87 102.584 324.158 98.216C326.516 93.7787 329.74 90.3813 333.83 88.024C337.99 85.5973 342.67 84.384 347.87 84.384C353.278 84.384 357.924 85.632 361.806 88.128C365.758 90.624 368.601 93.8133 370.334 97.696V85.216H377.614V142H370.334V129.416C368.532 133.299 365.654 136.523 361.702 139.088C357.82 141.584 353.174 142.832 347.766 142.832C342.636 142.832 337.99 141.619 333.83 139.192C329.74 136.765 326.516 133.333 324.158 128.896C321.87 124.459 320.726 119.328 320.726 113.504ZM370.334 113.608C370.334 109.032 369.398 105.011 367.526 101.544C365.654 98.0773 363.089 95.408 359.83 93.536C356.641 91.664 353.105 90.728 349.222 90.728C345.201 90.728 341.596 91.6293 338.406 93.432C335.217 95.2347 332.686 97.8693 330.814 101.336C329.012 104.733 328.11 108.789 328.11 113.504C328.11 118.149 329.012 122.24 330.814 125.776C332.686 129.243 335.217 131.912 338.406 133.784C341.596 135.587 345.201 136.488 349.222 136.488C353.105 136.488 356.641 135.552 359.83 133.68C363.089 131.808 365.654 129.139 367.526 125.672C369.398 122.205 370.334 118.184 370.334 113.608Z" fill="#121212"/>
<path d="M420.858 84.176C427.653 84.176 433.199 86.2907 437.498 90.52C441.797 94.68 443.946 100.747 443.946 108.72V142H436.77V109.552C436.77 103.381 435.21 98.6667 432.09 95.408C429.039 92.1493 424.845 90.52 419.506 90.52C414.029 90.52 409.661 92.2533 406.402 95.72C403.143 99.1867 401.514 104.283 401.514 111.008V142H394.234V85.216H401.514V94.888C403.317 91.4213 405.917 88.7867 409.314 86.984C412.711 85.112 416.559 84.176 420.858 84.176Z" fill="#121212"/>
<path d="M456.719 113.504C456.719 107.68 457.897 102.584 460.255 98.216C462.612 93.7787 465.836 90.3813 469.927 88.024C474.087 85.5973 478.767 84.384 483.967 84.384C488.959 84.384 493.465 85.5973 497.487 88.024C501.508 90.4507 504.455 93.6053 506.327 97.488V65.04H513.607V142H506.327V129.312C504.593 133.264 501.751 136.523 497.799 139.088C493.847 141.584 489.201 142.832 483.863 142.832C478.663 142.832 473.983 141.619 469.823 139.192C465.732 136.765 462.508 133.333 460.151 128.896C457.863 124.459 456.719 119.328 456.719 113.504ZM506.327 113.608C506.327 109.032 505.391 105.011 503.519 101.544C501.647 98.0773 499.081 95.408 495.823 93.536C492.633 91.664 489.097 90.728 485.215 90.728C481.193 90.728 477.588 91.6293 474.399 93.432C471.209 95.2347 468.679 97.8693 466.807 101.336C465.004 104.733 464.103 108.789 464.103 113.504C464.103 118.149 465.004 122.24 466.807 125.776C468.679 129.243 471.209 131.912 474.399 133.784C477.588 135.587 481.193 136.488 485.215 136.488C489.097 136.488 492.633 135.552 495.823 133.68C499.081 131.808 501.647 129.139 503.519 125.672C505.391 122.205 506.327 118.184 506.327 113.608Z" fill="#121212"/>
<path d="M526.898 105.6C526.898 98.4587 528.458 92.08 531.578 86.464C534.698 80.7787 538.962 76.376 544.37 73.256C549.778 70.0667 555.81 68.472 562.466 68.472C570.578 68.472 577.512 70.4133 583.266 74.296C589.09 78.1093 593.32 83.5173 595.954 90.52H587.426C585.346 85.5973 582.157 81.7493 577.858 78.976C573.629 76.2027 568.498 74.816 562.466 74.816C557.128 74.816 552.309 76.064 548.01 78.56C543.781 81.056 540.453 84.6613 538.026 89.376C535.6 94.0213 534.386 99.4293 534.386 105.6C534.386 111.771 535.6 117.179 538.026 121.824C540.453 126.469 543.781 130.04 548.01 132.536C552.309 135.032 557.128 136.28 562.466 136.28C568.498 136.28 573.629 134.928 577.858 132.224C582.157 129.451 585.346 125.637 587.426 120.784H595.954C593.32 127.717 589.09 133.091 583.266 136.904C577.442 140.717 570.509 142.624 562.466 142.624C555.81 142.624 549.778 141.064 544.37 137.944C538.962 134.755 534.698 130.352 531.578 124.736C528.458 119.12 526.898 112.741 526.898 105.6Z" fill="#121212"/>
<path d="M617.741 95.304C619.335 91.768 621.762 89.0293 625.021 87.088C628.349 85.1467 632.405 84.176 637.189 84.176V91.768H635.213C629.943 91.768 625.714 93.1893 622.525 96.032C619.335 98.8747 617.741 103.624 617.741 110.28V142H610.461V85.216H617.741V95.304Z" fill="#121212"/>
<path d="M644.812 113.504C644.812 107.68 645.956 102.584 648.244 98.216C650.602 93.7787 653.826 90.3813 657.916 88.024C662.076 85.5973 666.756 84.384 671.956 84.384C677.364 84.384 682.01 85.632 685.892 88.128C689.844 90.624 692.687 93.8133 694.42 97.696V85.216H701.7V142H694.42V129.416C692.618 133.299 689.74 136.523 685.788 139.088C681.906 141.584 677.26 142.832 671.852 142.832C666.722 142.832 662.076 141.619 657.916 139.192C653.826 136.765 650.602 133.333 648.244 128.896C645.956 124.459 644.812 119.328 644.812 113.504ZM694.42 113.608C694.42 109.032 693.484 105.011 691.612 101.544C689.74 98.0773 687.175 95.408 683.916 93.536C680.727 91.664 677.191 90.728 673.308 90.728C669.287 90.728 665.682 91.6293 662.492 93.432C659.303 95.2347 656.772 97.8693 654.9 101.336C653.098 104.733 652.196 108.789 652.196 113.504C652.196 118.149 653.098 122.24 654.9 125.776C656.772 129.243 659.303 131.912 662.492 133.784C665.682 135.587 669.287 136.488 673.308 136.488C677.191 136.488 680.727 135.552 683.916 133.68C687.175 131.808 689.74 129.139 691.612 125.672C693.484 122.205 694.42 118.184 694.42 113.608Z" fill="#121212"/>
<path d="M740.68 91.352H727.472V142H720.192V91.352H712.288V85.216H720.192V81.264C720.192 75.0933 721.752 70.552 724.872 67.64C728.061 64.728 733.192 63.272 740.264 63.272V69.512C735.549 69.512 732.221 70.4133 730.28 72.216C728.408 74.0187 727.472 77.0347 727.472 81.264V85.216H740.68V91.352Z" fill="#121212"/>
<path d="M761.604 91.352V126.608C761.604 130.075 762.263 132.467 763.58 133.784C764.898 135.101 767.22 135.76 770.548 135.76H777.204V142H769.404C764.274 142 760.46 140.821 757.964 138.464C755.468 136.037 754.22 132.085 754.22 126.608V91.352H746.316V85.216H754.22V70.968H761.604V85.216H777.204V91.352H761.604Z" fill="#121212"/>
<path d="M168.777 45.5508L128.62 64.2126L148.204 108.46L168.777 45.5508Z" fill="#30A567"/>
<path d="M166.433 62.9389L193 62.9389L172.004 45.9057L166.433 62.9389Z" fill="#30A567"/>
<path d="M0 13.315L33.2225 14.8543L81.7575 72.0857L0 13.315Z" fill="#30A567"/>
<path d="M73.0764 148.988L75.9305 193L111.564 131.887L73.1144 148.861L73.0764 148.988Z" fill="#30A567"/>
<path d="M74.3137 144.86L146.697 112.905L109.25 28.2989L74.3137 144.86Z" fill="#30A567"/>
<path d="M107.208 24.0473L24.7903 0L91.0111 78.0862L107.208 24.0473Z" fill="#30A567"/>
</svg>
